<svg width="187" height="37" viewBox="0 0 187 37" fill="none" xmlns="http://www.w3.org/2000/svg">
<path d="M32.0693 15.7207C33.0693 23.2207 25.1297 29.5 16.5693 29.5C8.06934 29 1.56934 23.7207 0.0693359 15.7207C1.56934 8.7207 8.06934 2 16.5693 1C25.1297 1 33 8 32.0693 15.7207Z" fill="#96B4CA"/>
<path d="M28.592 14.24C30.488 14.912 31.664 16.352 31.664 18.392C31.664 21.296 29.264 23 24.752 23H15.68V6.2H24.272C28.688 6.2 30.848 8 30.848 10.592C30.848 12.2 30.032 13.496 28.592 14.24ZM23.648 9.632H20.384V12.872H23.648C25.232 12.872 26.048 12.32 26.048 11.24C26.048 10.184 25.232 9.632 23.648 9.632ZM20.384 19.568H24.368C26 19.568 26.864 19.016 26.864 17.864C26.864 16.712 26 16.16 24.368 16.16H20.384V19.568ZM51.6453 23H46.7013L45.3813 19.736H38.2773L36.9573 23H32.1093L39.5253 6.2H44.2053L51.6453 23ZM41.8293 10.856L39.6693 16.232H43.9893L41.8293 10.856ZM65.9045 14.24C67.8005 14.912 68.9765 16.352 68.9765 18.392C68.9765 21.296 66.5765 23 62.0645 23H52.9925V6.2H61.5845C66.0005 6.2 68.1605 8 68.1605 10.592C68.1605 12.2 67.3445 13.496 65.9045 14.24ZM60.9605 9.632H57.6965V12.872H60.9605C62.5445 12.872 63.3605 12.32 63.3605 11.24C63.3605 10.184 62.5445 9.632 60.9605 9.632ZM57.6965 19.568H61.6805C63.3125 19.568 64.1765 19.016 64.1765 17.864C64.1765 16.712 63.3125 16.16 61.6805 16.16H57.6965V19.568ZM81.9103 6.2H86.5183L80.0863 16.976V23H75.3343V16.904L68.9262 6.2H73.9423L77.9263 12.872L81.9103 6.2ZM93.3866 17.912H86.3786V14.408H93.3866V17.912ZM101.834 23.336C99.074 23.336 96.338 22.592 94.754 21.488L96.314 17.984C97.802 18.968 99.914 19.64 101.858 19.64C103.826 19.64 104.594 19.088 104.594 18.272C104.594 15.608 95.042 17.552 95.042 11.312C95.042 8.312 97.49 5.864 102.482 5.864C104.666 5.864 106.922 6.368 108.578 7.328L107.114 10.856C105.506 9.992 103.922 9.56 102.458 9.56C100.466 9.56 99.746 10.232 99.746 11.072C99.746 13.64 109.274 11.72 109.274 17.912C109.274 20.84 106.826 23.336 101.834 23.336ZM116.221 23H111.469V6.2H116.221V23ZM127.93 23H123.178V9.968H118.018V6.2H133.066V9.968H127.93V23ZM143.399 23H138.647V9.968H133.487V6.2H148.535V9.968H143.399V23ZM155.009 16.256V19.328H163.793V23H150.305V6.2H163.481V9.872H155.009V12.704H162.473V16.256H155.009ZM181.91 23H176.822L173.774 18.536H171.182V23H166.43V6.2H174.11C178.694 6.2 181.574 8.576 181.574 12.416C181.574 14.888 180.374 16.712 178.286 17.72L181.91 23ZM176.774 12.416C176.774 10.856 175.79 9.944 173.822 9.944H171.182V14.864H173.822C175.79 14.864 176.774 13.952 176.774 12.416Z" fill="white"/>
<path d="M142.653 34.154C140.189 34.154 138.374 32.46 138.374 30.15C138.374 27.84 140.189 26.146 142.653 26.146C145.117 26.146 146.932 27.84 146.932 30.15C146.932 32.46 145.117 34.154 142.653 34.154ZM142.653 32.35C143.819 32.35 144.732 31.481 144.732 30.15C144.732 28.819 143.819 27.95 142.653 27.95C141.487 27.95 140.574 28.819 140.574 30.15C140.574 31.481 141.487 32.35 142.653 32.35ZM153.265 30.403V26.3H155.399V34H153.606L150.207 29.897V34H148.073V26.3H149.866L153.265 30.403ZM162.787 34H156.935V26.3H159.113V32.273H162.787V34ZM165.827 34H163.649V26.3H165.827V34ZM172.568 30.403V26.3H174.702V34H172.909L169.51 29.897V34H167.376V26.3H169.169L172.568 30.403ZM178.395 30.909V32.317H182.421V34H176.239V26.3H182.278V27.983H178.395V29.281H181.816V30.909H178.395Z" fill="white"/>
</svg>
